<?xml version="1.0" encoding="utf-8"?>
<!-- Generator: Adobe Illustrator 27.7.0, SVG Export Plug-In . SVG Version: 6.00 Build 0)  -->
<svg version="1.1" id="Camada_1" xmlns="http://www.w3.org/2000/svg" xmlns:xlink="http://www.w3.org/1999/xlink" x="0px" y="0px"
	 viewBox="0 0 312 406.9" style="enable-background:new 0 0 312 406.9;" xml:space="preserve">
<style type="text/css">
	.st0{fill:#FFFFFF;}
</style>
<g>
	<path class="st0" d="M28.6,341.3c30.1,0,59.7,0,89.6,0c0,9.3,0,18.2,0,27.5c-39.1,0-78.4,0-118.2,0c0-105,0-210,0-315.4
		c39.4,0,78.8,0,118.4,0c0,8.7,0,17.5,0,26.8c-29.8,0-59.7,0-89.8,0C28.6,167.4,28.6,254,28.6,341.3z"/>
	<path class="st0" d="M284.9,80.3c-31.4,0-62,0-93.1,0c0-8.9,0-17.7,0-26.8c39.9,0,79.8,0,120.2,0c0,105,0,210,0,315.4
		c-40,0-80.1,0-120.4,0c0-9.1,0-18,0-27.4c31.1,0,62.1,0,93.3,0C284.9,254.3,284.9,167.6,284.9,80.3z"/>
	<path class="st0" d="M101.9,287.2c0.8,9.6,5.1,17.4,10.7,25.3c-8.4,2.9-16.8,3.5-25.1,2.2C69,311.9,56.8,301,51.9,283.3
		c-5.1-18.6-1.6-36.1,13.3-49.3c9.8-8.7,21.1-15.6,31.6-23.5c16.6-12.6,33.2-25.1,49.3-38.1c8.2-6.6,13.6-15.4,16.4-25.7
		c3.4-12.6,12-21,22.9-28.1c4.8,6.6,7.1,13.6,7.9,21.1c1.9,17.5-4,32.3-17.4,43.6C162,194.9,147.6,206,133.3,217
		c-14.5,11.1-29.2,22-43.9,32.9c-8.2,6.1-12.3,13.9-10.4,24.2c1.3,7.4,6.2,13.9,15.9,13.2C97.1,287.1,99.4,287.2,101.9,287.2z"/>
	<path class="st0" d="M210.3,134.4c-4.1-9-7.7-16.9-11.3-24.9c24.2-11.1,59.4,3.1,62.3,37.8c1.5,17.5-5,31.2-19.3,41.3
		c-4.6,3.2-9.3,6.6-14.2,9.2c-15.3,8.3-28.6,19.3-42.4,29.8c-7.5,5.7-14.9,11.7-21.9,18.1c-8.5,7.7-13.6,17.5-16.6,28.5
		c-3.4,12.6-11.5,21.4-22.4,28.4c-7.4-10.7-9.5-22.3-7.6-34.5c2.2-14.2,9-26,20.5-34.8c29.2-22.3,58.5-44.5,87.8-66.7
		c4-3,7.2-6.4,8.2-11.5c2.1-10.9-3.8-19.1-15-20.5C215.4,134.1,212.4,134.4,210.3,134.4z"/>
	<path class="st0" d="M140.5,103.1c0-31.5,0-62.8,0-94.4c9.2,0,18.1,0,27.5,0c0,34.5,0,69,0,104.1c-1.5,1.4-3.3,3.1-5.1,4.8
		c-6.9,6.5-12.7,13.8-15.2,23.1c-3.3,12-10.2,21.1-20,28.4c-1.9,1.4-3.7,2.8-5.9,4.4c-6.1-12.6-7.1-25.4-3.7-38.5
		C121.4,121.6,130.8,112.5,140.5,103.1z"/>
	<path class="st0" d="M199.8,312.5c3.6-8.6,6.9-16.7,10.4-25.3c2,0,4.8,0.1,7.6,0c9.1-0.3,16.4-7.6,16.4-16.8
		c0-7.2-2.2-13.7-8.4-17.7c-7.1-4.6-14.6-8.7-21.8-13c-1.8-1.1-3.6-2.2-5.8-3.6c8.3-6.4,16.2-12.6,24-18.6
		c30.5,11.7,45.8,37,37.7,66.4c-6,21.7-27.8,35-50,30.9C206.3,314.1,202.8,313.2,199.8,312.5z"/>
	<path class="st0" d="M114.2,109c-6.3,7.7-11.1,15.7-12.6,25.3c-1.8,0-3.3,0-4.8,0c-8.7,0.1-15.1,4.5-17.4,12.2
		c-2.3,7.5,1.1,16.5,8,20.9c7.6,4.7,15.3,9.3,23.8,14.5c-8.8,6.2-16.8,12-24.8,17.7c-9.7-5.3-18.8-10.2-25.8-18.4
		c-14.2-16.7-13.9-43.8,1.1-60C76.1,105.6,91.2,102,114.2,109z"/>
	<path class="st0" d="M168.4,401.1c-9.6,0-18.4,0-27.6,0c0-29.6,0-59.2,0-90.9c1.6-1.4,4.7-3.6,7.4-6.3c7.8-7.7,13.1-16.8,15-27.6
		c1.8-10.4,7.4-18.4,15.3-25c2.8-2.3,5.4-4.8,8.7-7.7c6.4,14.3,9.2,28.3,5.4,43.2c-3.7,14.6-12.7,25.8-24.1,35.3
		C168.4,348.4,168.4,374.5,168.4,401.1z"/>
</g>
</svg>
