<?xml version="1.0" encoding="utf-8"?>
<!-- Generator: Adobe Illustrator 27.7.0, SVG Export Plug-In . SVG Version: 6.00 Build 0)  -->
<svg version="1.1" id="Camada_1" xmlns="http://www.w3.org/2000/svg" xmlns:xlink="http://www.w3.org/1999/xlink" x="0px" y="0px"
	 viewBox="0 0 312.03 406.9" style="enable-background:new 0 0 312.03 406.9;" xml:space="preserve">
<g>
	<path d="M28.61,341.34c30.11,0,59.7,0,89.62,0c0,9.29,0,18.22,0,27.52c-39.14,0-78.39,0-118.24,0C0,263.83,0,158.84,0,53.44
		c39.39,0,78.77,0,118.45,0c0,8.69,0,17.45,0,26.82c-29.82,0-59.69,0-89.83,0C28.61,167.44,28.61,254.01,28.61,341.34z"/>
	<path d="M284.89,80.26c-31.36,0-62.01,0-93.1,0c0-8.95,0-17.66,0-26.77c39.93,0,79.83,0,120.25,0c0,104.99,0,210.02,0,315.4
		c-40.04,0-80.09,0-120.44,0c0-9.12,0-18.01,0-27.39c31.15,0,62.07,0,93.29,0C284.89,254.28,284.89,167.56,284.89,80.26z"/>
	<path d="M101.93,287.23c0.82,9.59,5.1,17.39,10.66,25.26c-8.45,2.85-16.76,3.53-25.13,2.25c-18.5-2.85-30.7-13.73-35.56-31.45
		c-5.1-18.59-1.58-36.07,13.27-49.27c9.77-8.68,21.11-15.56,31.56-23.49c16.55-12.56,33.15-25.08,49.32-38.11
		c8.17-6.59,13.59-15.45,16.38-25.73c3.42-12.65,12-21.02,22.87-28.12c4.82,6.57,7.13,13.61,7.93,21.09
		c1.87,17.52-3.96,32.31-17.37,43.55c-13.88,11.64-28.23,22.74-42.6,33.78c-14.5,11.14-29.22,22-43.93,32.86
		c-8.24,6.08-12.28,13.94-10.45,24.17c1.32,7.37,6.21,13.9,15.94,13.22C97.09,287.1,99.39,287.23,101.93,287.23z"/>
	<path d="M210.27,134.43c-4.1-9.01-7.7-16.95-11.31-24.89c24.19-11.09,59.37,3.06,62.31,37.77c1.48,17.46-4.96,31.22-19.26,41.26
		c-4.62,3.25-9.26,6.55-14.22,9.23c-15.31,8.27-28.64,19.33-42.41,29.76c-7.54,5.71-14.89,11.73-21.92,18.06
		c-8.5,7.66-13.63,17.49-16.59,28.5c-3.38,12.57-11.5,21.38-22.43,28.39c-7.4-10.73-9.48-22.28-7.61-34.49
		c2.18-14.23,9.02-26.03,20.51-34.81c29.2-22.31,58.49-44.51,87.77-66.71c3.96-3,7.23-6.42,8.19-11.47
		c2.08-10.89-3.82-19.08-14.96-20.54C215.43,134.1,212.4,134.43,210.27,134.43z"/>
	<path d="M140.53,103.05c0-31.52,0-62.79,0-94.45c9.21,0,18.11,0,27.46,0c0,34.46,0,69.01,0,104.09c-1.5,1.39-3.34,3.06-5.14,4.75
		c-6.9,6.47-12.67,13.82-15.19,23.05c-3.27,11.98-10.24,21.11-20.04,28.37c-1.86,1.38-3.72,2.76-5.94,4.41
		c-6.08-12.62-7.05-25.38-3.65-38.51C121.44,121.57,130.82,112.46,140.53,103.05z"/>
	<path d="M199.78,312.48c3.56-8.62,6.9-16.7,10.45-25.3c2,0,4.81,0.08,7.61-0.02c9.09-0.32,16.41-7.65,16.45-16.78
		c0.04-7.16-2.17-13.66-8.41-17.73c-7.09-4.62-14.55-8.68-21.84-12.99c-1.83-1.09-3.63-2.24-5.84-3.61
		c8.27-6.42,16.22-12.59,23.98-18.61c30.53,11.68,45.82,37.01,37.73,66.4c-5.98,21.74-27.76,34.95-49.98,30.88
		C206.34,314.07,202.81,313.16,199.78,312.48z"/>
	<path d="M114.21,108.99c-6.32,7.73-11.06,15.65-12.59,25.26c-1.84,0-3.3-0.01-4.77,0c-8.7,0.05-15.06,4.51-17.44,12.22
		c-2.32,7.5,1.06,16.51,8.03,20.86c7.59,4.74,15.28,9.3,23.79,14.46c-8.76,6.24-16.82,11.99-24.82,17.69
		c-9.65-5.26-18.78-10.17-25.76-18.38c-14.22-16.71-13.86-43.82,1.1-59.98C76.14,105.61,91.2,102.01,114.21,108.99z"/>
	<path d="M168.37,401.07c-9.55,0-18.35,0-27.62,0c0-29.65,0-59.2,0-90.9c1.59-1.35,4.68-3.65,7.39-6.32
		c7.79-7.66,13.14-16.78,14.98-27.63c1.77-10.43,7.36-18.36,15.28-24.96c2.78-2.32,5.43-4.79,8.72-7.7
		c6.4,14.33,9.17,28.33,5.39,43.19c-3.72,14.64-12.71,25.76-24.14,35.27C168.37,348.36,168.37,374.47,168.37,401.07z"/>
</g>
</svg>
